<?xml version="1.0" encoding="UTF-8" standalone="no"?>
<!-- Created with Inkscape (http://www.inkscape.org/) -->

<svg
   width="32"
   height="32"
   viewBox="0 0 32 32"
   version="1.1"
   id="svg5"
   inkscape:version="1.2.2 (732a01da63, 2022-12-09)"
   sodipodi:docname="icon-monochrome.svg"
   inkscape:export-filename="icon.png"
   inkscape:export-xdpi="768"
   inkscape:export-ydpi="768"
   xmlns:inkscape="http://www.inkscape.org/namespaces/inkscape"
   xmlns:sodipodi="http://sodipodi.sourceforge.net/DTD/sodipodi-0.dtd"
   xmlns="http://www.w3.org/2000/svg"
   xmlns:svg="http://www.w3.org/2000/svg">
  <sodipodi:namedview
     id="namedview7"
     pagecolor="#ffffff"
     bordercolor="#000000"
     borderopacity="0.25"
     inkscape:showpageshadow="2"
     inkscape:pageopacity="0.0"
     inkscape:pagecheckerboard="0"
     inkscape:deskcolor="#d1d1d1"
     inkscape:document-units="px"
     showgrid="true"
     showguides="false"
     inkscape:zoom="11.313709"
     inkscape:cx="18.075416"
     inkscape:cy="22.097086"
     inkscape:window-width="1470"
     inkscape:window-height="766"
     inkscape:window-x="214"
     inkscape:window-y="145"
     inkscape:window-maximized="0"
     inkscape:current-layer="layer1">
    <inkscape:grid
       type="xygrid"
       id="grid9"
       empspacing="4"
       originx="0"
       originy="0"
       snapvisiblegridlinesonly="true" />
  </sodipodi:namedview>
  <defs
     id="defs2">
    <linearGradient
       id="reds">
      <stop
         style="stop-color:#ec335c;stop-opacity:1;"
         offset="0"
         id="stop1873" />
      <stop
         style="stop-color:#ee645d;stop-opacity:1;"
         offset="0.5"
         id="stop1875" />
      <stop
         style="stop-color:#ec8a4d;stop-opacity:1;"
         offset="1"
         id="stop1877" />
    </linearGradient>
    <linearGradient
       id="greens"
       inkscape:swatch="gradient">
      <stop
         style="stop-color:#7fec39;stop-opacity:1;"
         offset="0"
         id="stop24656" />
      <stop
         style="stop-color:#27927d;stop-opacity:1;"
         offset="1"
         id="stop24658" />
    </linearGradient>
  </defs>
  <g
     inkscape:label="Layer 1"
     inkscape:groupmode="layer"
     id="layer1">
    <path
       id="path3106"
       style="display:inline;fill:#000000;fill-opacity:1;stroke:none;stroke-width:2;stroke-linecap:round;stroke-linejoin:round;stroke-dasharray:none;stroke-opacity:1"
       d="M 17.603516 0.1328125 A 1 1 0 0 0 16.880859 0.38671875 A 1 1 0 0 0 16.804688 1.7988281 C 16.804688 1.7988281 17.351267 2.4226465 17.748047 3.0449219 C 16.387415 2.8526399 15.534135 2.8492419 14.738281 2.9355469 C 13.46635 3.0734798 9.4340973 3.4395937 9.9960938 4.5234375 C 10.298634 5.1069041 14.517578 5.1992188 14.517578 5.1992188 C 14.517578 5.1992188 11.330418 6.9456601 12.65625 8.1894531 C 13.094751 8.6008202 18.208984 7.4609375 18.208984 7.4609375 C 18.208984 7.4609375 22.909155 11.285047 23.400391 11.003906 C 24.481189 10.38535 22.089844 7.2695313 22.089844 7.2695312 C 22.089844 7.2695312 26.010754 8.9628009 26.472656 8.4550781 C 27.094263 7.7718128 25.070284 6.1557765 24.316406 5.5039062 C 23.466797 4.8864455 22.20952 3.968614 20.087891 3.4667969 C 20.005823 3.1234769 19.875941 2.7385268 19.664062 2.3554688 C 19.106955 1.3482496 18.292969 0.46289062 18.292969 0.46289062 A 1 1 0 0 0 17.603516 0.1328125 z M 9.9511719 5.6640625 C 6.2745354 7.8098813 4.009948 11.742994 4 16 C 4 22.627403 9.3725962 28 16 28 C 22.627403 28 28 22.627403 28 16 C 27.9988 13.713127 27.344234 11.47419 26.113281 9.546875 C 25.862816 9.545835 25.634671 9.5133366 25.394531 9.4648438 C 25.049623 9.3951938 24.678762 9.2683991 24.3125 9.1523438 C 24.427 9.4226153 24.5774 9.6714772 24.634766 9.9726562 C 24.661053 10.110677 24.681233 10.255443 24.683594 10.408203 L 25.275391 10.066406 A 0.5 0.5 0 0 1 25.525391 10 A 0.5 0.5 0 0 1 25.958984 10.25 A 0.5 0.5 0 0 1 25.775391 10.933594 L 24.910156 11.433594 A 0.5 0.5 0 0 1 24.384766 11.408203 C 24.256268 11.592596 24.091744 11.759344 23.896484 11.871094 C 23.50456 12.095399 23.236098 12.026154 23.060547 11.990234 C 22.884995 11.954314 22.758217 11.904004 22.630859 11.847656 C 22.376147 11.734965 22.128403 11.589255 21.851562 11.416016 C 21.297885 11.069532 20.652906 10.609444 20.023438 10.140625 C 18.959538 9.3482504 18.245075 8.7639287 17.957031 8.53125 C 17.612186 8.6065178 16.891542 8.768315 15.769531 8.9648438 C 15.088271 9.0841716 14.391417 9.1904639 13.798828 9.2441406 C 13.502534 9.2709806 13.236656 9.2871226 12.976562 9.2753906 C 12.716468 9.2636588 12.465193 9.3800271 11.972656 8.9179688 C 11.624618 8.5914661 11.426264 8.1237744 11.373047 7.6699219 A 0.5 0.5 0 0 1 11.25 7.7734375 A 0.5 0.5 0 0 1 10.566406 7.5898438 L 10.066406 6.7246094 A 0.5 0.5 0 0 1 10.25 6.0410156 A 0.5 0.5 0 0 1 10.472656 5.9746094 A 0.5 0.5 0 0 1 10.628906 5.9902344 A 0.5 0.5 0 0 1 10.933594 6.2246094 L 11.402344 7.0351562 C 11.413664 6.9837716 11.423456 6.9310284 11.439453 6.8828125 C 11.563094 6.5101492 11.811758 6.298567 12.027344 6.0410156 C 11.546089 5.9939904 11.056313 5.9424163 10.626953 5.8535156 C 10.390457 5.8045483 10.171677 5.7487445 9.9511719 5.6640625 z M 6.5 10 A 0.5 0.5 0 0 1 6.7246094 10.066406 L 7.5898438 10.566406 A 0.5 0.5 0 0 1 7.7734375 11.25 A 0.5 0.5 0 0 1 7.0898438 11.433594 L 6.2246094 10.933594 A 0.5 0.5 0 0 1 6.0410156 10.25 A 0.5 0.5 0 0 1 6.34375 10.017578 A 0.5 0.5 0 0 1 6.5 10 z M 12.466797 13.003906 C 12.513744 13.000708 12.56158 13.000355 12.609375 13.003906 C 12.759335 13.014956 12.904873 13.059686 13.035156 13.134766 L 16.5 15.134766 C 16.977531 15.411155 17.140971 16.022091 16.865234 16.5 C 16.588845 16.977531 15.977909 17.140971 15.5 16.865234 L 12.035156 14.865234 C 11.557627 14.588845 11.394185 13.977909 11.669922 13.5 C 11.838054 13.209683 12.138166 13.026296 12.466797 13.003906 z M 5 15.5 L 6 15.5 A 0.5 0.5 0 0 1 6.5 16 A 0.5 0.5 0 0 1 6 16.5 L 5 16.5 A 0.5 0.5 0 0 1 4.5 16 A 0.5 0.5 0 0 1 5 15.5 z M 26 15.5 L 27 15.5 A 0.5 0.5 0 0 1 27.5 16 A 0.5 0.5 0 0 1 27 16.5 L 26 16.5 A 0.5 0.5 0 0 1 25.5 16 A 0.5 0.5 0 0 1 26 15.5 z M 7.3144531 20.5 A 0.5 0.5 0 0 1 7.46875 20.517578 A 0.5 0.5 0 0 1 7.7734375 20.75 A 0.5 0.5 0 0 1 7.5898438 21.433594 L 6.7246094 21.933594 A 0.5 0.5 0 0 1 6.0410156 21.75 A 0.5 0.5 0 0 1 6.2246094 21.066406 L 7.0898438 20.566406 A 0.5 0.5 0 0 1 7.3144531 20.5 z M 24.660156 20.5 A 0.5 0.5 0 0 1 24.910156 20.566406 L 25.775391 21.066406 A 0.5 0.5 0 0 1 25.958984 21.75 A 0.5 0.5 0 0 1 25.275391 21.933594 L 24.410156 21.433594 A 0.5 0.5 0 0 1 24.226562 20.75 A 0.5 0.5 0 0 1 24.660156 20.5 z M 11.025391 24.160156 A 0.5 0.5 0 0 1 11.25 24.226562 A 0.5 0.5 0 0 1 11.433594 24.910156 L 10.933594 25.775391 A 0.5 0.5 0 0 1 10.25 25.958984 A 0.5 0.5 0 0 1 10.066406 25.275391 L 10.566406 24.410156 A 0.5 0.5 0 0 1 10.871094 24.177734 A 0.5 0.5 0 0 1 11.025391 24.160156 z M 21 24.160156 A 0.5 0.5 0 0 1 21.433594 24.410156 L 21.933594 25.275391 A 0.5 0.5 0 0 1 21.75 25.958984 A 0.5 0.5 0 0 1 21.066406 25.775391 L 20.566406 24.910156 A 0.5 0.5 0 0 1 20.75 24.226562 A 0.5 0.5 0 0 1 21 24.160156 z M 16 25.5 A 0.5 0.5 0 0 1 16.5 26 L 16.5 27 A 0.5 0.5 0 0 1 16 27.5 A 0.5 0.5 0 0 1 15.5 27 L 15.5 26 A 0.5 0.5 0 0 1 16 25.5 z " />
  </g>
</svg>
