<?xml version="1.0" encoding="UTF-8" standalone="no"?>
<!-- Created with Inkscape (http://www.inkscape.org/) -->

<svg
   width="32"
   height="32"
   viewBox="0 0 32 32"
   version="1.1"
   id="svg5"
   inkscape:version="1.2.2 (732a01da63, 2022-12-09)"
   sodipodi:docname="icon-mono.svg"
   inkscape:export-filename="favicon\mstile-150x150.png"
   inkscape:export-xdpi="450"
   inkscape:export-ydpi="450"
   xmlns:inkscape="http://www.inkscape.org/namespaces/inkscape"
   xmlns:sodipodi="http://sodipodi.sourceforge.net/DTD/sodipodi-0.dtd"
   xmlns="http://www.w3.org/2000/svg"
   xmlns:svg="http://www.w3.org/2000/svg">
  <defs
     id="defs14" />
  <sodipodi:namedview
     id="namedview7"
     pagecolor="#ffffff"
     bordercolor="#000000"
     borderopacity="0.25"
     inkscape:showpageshadow="2"
     inkscape:pageopacity="0.0"
     inkscape:pagecheckerboard="0"
     inkscape:deskcolor="#d1d1d1"
     inkscape:document-units="px"
     showgrid="true"
     showguides="false"
     inkscape:zoom="11.313709"
     inkscape:cx="29.212349"
     inkscape:cy="22.185475"
     inkscape:window-width="1470"
     inkscape:window-height="766"
     inkscape:window-x="279"
     inkscape:window-y="102"
     inkscape:window-maximized="0"
     inkscape:current-layer="layer1">
    <inkscape:grid
       type="xygrid"
       id="grid9"
       empspacing="4"
       originx="0"
       originy="0"
       snapvisiblegridlinesonly="true" />
  </sodipodi:namedview>
  <g
     inkscape:label="Layer 1"
     inkscape:groupmode="layer"
     id="layer1">
    <path
       id="path2424"
       style="display:inline;fill:#000000;fill-opacity:1;stroke:none;stroke-width:2;stroke-linecap:round;stroke-linejoin:round;stroke-dasharray:none;stroke-opacity:1"
       inkscape:label="tomato"
       d="M 17.638672 1.515625 A 0.5 0.5 0 0 0 17.337891 1.6523438 A 0.5 0.5 0 0 0 17.320312 2.359375 C 17.690235 2.748107 17.876288 2.9800115 17.964844 3.2050781 C 18.014814 3.3320699 18.045521 3.4797488 18.050781 3.6875 C 16.031067 3.3680589 14.277476 3.3962661 13.191406 3.7753906 C 11.356319 4.4159806 8.8429978 5.5590485 9.2363281 6.2285156 C 9.725541 7.0611796 14.363281 5.3984375 14.363281 5.3984375 C 14.363281 5.3984375 11.249094 10.324194 12.210938 11.054688 C 13.191448 11.799359 17.697266 6.71875 17.697266 6.71875 C 17.697266 6.71875 21.113387 12.505575 21.925781 12.259766 C 22.734434 12.015086 21.748047 6.8457031 21.748047 6.8457031 C 21.748047 6.8457031 25.229502 9.7753007 25.847656 9.2050781 C 26.526611 8.5787675 24.841805 7.178715 23.609375 6.0527344 C 22.426613 4.9721316 21.201072 4.3162246 19.050781 3.8671875 C 19.061289 3.4762898 19.019335 3.1451531 18.898438 2.8378906 C 18.725496 2.398353 18.42864 2.0731504 18.044922 1.6699219 A 0.5 0.5 0 0 0 17.638672 1.515625 z M 8.5859375 6.5996094 C 5.700292 8.8669774 4.0107986 12.330152 4 16 C 4 22.627403 9.3725962 28 16 28 C 22.627403 28 28 22.627403 28 16 C 27.999842 13.81966 27.405646 11.680551 26.28125 9.8125 C 26.080069 9.9671559 25.861936 10.014406 25.664062 10.021484 A 0.5 0.5 0 0 1 25.958984 10.25 A 0.5 0.5 0 0 1 25.775391 10.933594 L 24.910156 11.433594 A 0.5 0.5 0 0 1 24.226562 11.25 A 0.5 0.5 0 0 1 24.410156 10.566406 L 25.275391 10.066406 A 0.5 0.5 0 0 1 25.449219 10.015625 C 25.423479 10.012591 25.395043 10.011775 25.371094 10.007812 C 25.102338 9.9633544 24.869784 9.8701097 24.626953 9.7558594 C 24.141294 9.5273587 23.62875 9.1967853 23.136719 8.8535156 C 22.940194 8.7164097 22.946206 8.7019815 22.763672 8.5664062 C 22.818002 8.9355788 22.839252 8.965169 22.884766 9.3789062 C 22.959656 10.059753 23.012471 10.750814 22.988281 11.341797 C 22.976191 11.637288 22.950189 11.904543 22.867188 12.175781 C 22.784188 12.447022 22.614226 12.835806 22.142578 12.978516 C 21.580924 13.148456 21.286654 12.870354 21.046875 12.681641 C 20.807096 12.492925 20.586527 12.259055 20.351562 11.984375 C 19.881637 11.435018 19.37085 10.722236 18.884766 10.001953 C 18.188773 8.970633 17.879341 8.4323348 17.572266 7.9238281 C 17.166505 8.3681211 16.754201 8.8455702 15.835938 9.7109375 C 15.195337 10.314633 14.524336 10.900025 13.896484 11.316406 C 13.582562 11.524598 13.283354 11.695283 12.951172 11.798828 C 12.61899 11.902374 12.154102 11.953313 11.757812 11.652344 C 11.398312 11.379312 11.288454 10.956593 11.277344 10.626953 C 11.266234 10.297313 11.327624 9.9876232 11.417969 9.6621094 C 11.598679 9.0110811 11.915522 8.3029808 12.255859 7.6191406 C 12.50493 7.1186871 12.560011 7.07415 12.794922 6.6601562 C 12.500358 6.7473612 12.491818 6.7688868 12.167969 6.8515625 C 11.911429 6.9170542 11.653318 6.9739755 11.396484 7.0273438 L 11.433594 7.0898438 A 0.5 0.5 0 0 1 11.25 7.7734375 A 0.5 0.5 0 0 1 10.566406 7.5898438 L 10.337891 7.1933594 C 10.325787 7.194367 10.312829 7.1963376 10.300781 7.1972656 C 10.008843 7.2197526 9.7343043 7.2237746 9.4511719 7.1679688 C 9.1680394 7.1121634 8.8096975 6.9835771 8.5898438 6.609375 C 8.5880738 6.606375 8.5876675 6.6026394 8.5859375 6.5996094 z M 6.4746094 10 A 0.5 0.5 0 0 1 6.7246094 10.066406 L 7.5898438 10.566406 A 0.5 0.5 0 0 1 7.7734375 11.25 A 0.5 0.5 0 0 1 7.0898438 11.433594 L 6.2246094 10.933594 A 0.5 0.5 0 0 1 6.0410156 10.25 A 0.5 0.5 0 0 1 6.4746094 10 z M 12.591797 13.251953 A 0.75 0.75 0 0 1 12.910156 13.349609 L 16.375 15.349609 A 0.75 0.75 0 0 1 16.648438 16.375 A 0.75 0.75 0 0 1 15.625 16.650391 L 12.160156 14.650391 A 0.75 0.75 0 0 1 11.886719 13.625 A 0.75 0.75 0 0 1 12.591797 13.251953 z M 5 15.5 L 6 15.5 A 0.5 0.5 0 0 1 6.5 16 A 0.5 0.5 0 0 1 6 16.5 L 5 16.5 A 0.5 0.5 0 0 1 4.5 16 A 0.5 0.5 0 0 1 5 15.5 z M 26 15.5 L 27 15.5 A 0.5 0.5 0 0 1 27.5 16 A 0.5 0.5 0 0 1 27 16.5 L 26 16.5 A 0.5 0.5 0 0 1 25.5 16 A 0.5 0.5 0 0 1 26 15.5 z M 7.3398438 20.5 A 0.5 0.5 0 0 1 7.7734375 20.75 A 0.5 0.5 0 0 1 7.5898438 21.433594 L 6.7246094 21.933594 A 0.5 0.5 0 0 1 6.0410156 21.75 A 0.5 0.5 0 0 1 6.2246094 21.066406 L 7.0898438 20.566406 A 0.5 0.5 0 0 1 7.3398438 20.5 z M 24.685547 20.5 A 0.5 0.5 0 0 1 24.910156 20.566406 L 25.775391 21.066406 A 0.5 0.5 0 0 1 25.958984 21.75 A 0.5 0.5 0 0 1 25.275391 21.933594 L 24.410156 21.433594 A 0.5 0.5 0 0 1 24.226562 20.75 A 0.5 0.5 0 0 1 24.53125 20.517578 A 0.5 0.5 0 0 1 24.685547 20.5 z M 11.025391 24.160156 A 0.5 0.5 0 0 1 11.25 24.226562 A 0.5 0.5 0 0 1 11.433594 24.910156 L 10.933594 25.775391 A 0.5 0.5 0 0 1 10.25 25.958984 A 0.5 0.5 0 0 1 10.066406 25.275391 L 10.566406 24.410156 A 0.5 0.5 0 0 1 10.871094 24.177734 A 0.5 0.5 0 0 1 11.025391 24.160156 z M 20.974609 24.160156 A 0.5 0.5 0 0 1 21.128906 24.177734 A 0.5 0.5 0 0 1 21.433594 24.410156 L 21.933594 25.275391 A 0.5 0.5 0 0 1 21.75 25.958984 A 0.5 0.5 0 0 1 21.066406 25.775391 L 20.566406 24.910156 A 0.5 0.5 0 0 1 20.75 24.226562 A 0.5 0.5 0 0 1 20.974609 24.160156 z M 16 25.5 A 0.5 0.5 0 0 1 16.5 26 L 16.5 27 A 0.5 0.5 0 0 1 16 27.5 A 0.5 0.5 0 0 1 15.5 27 L 15.5 26 A 0.5 0.5 0 0 1 16 25.5 z " />
  </g>
</svg>
