<?xml version="1.0" encoding="UTF-8" standalone="no"?>
<!-- Created with Inkscape (http://www.inkscape.org/) -->

<svg
   width="32"
   height="32"
   viewBox="0 0 32 32"
   version="1.1"
   id="svg5"
   xmlns="http://www.w3.org/2000/svg"
   xmlns:svg="http://www.w3.org/2000/svg">
  <defs
     id="defs14" />
  <g
     id="layer1">
    <path
       id="path2424"
       style="display:inline;fill:#000000;fill-opacity:1;stroke:none;stroke-width:2;stroke-linecap:round;stroke-linejoin:round;stroke-dasharray:none;stroke-opacity:1"
       d="m 17.638672,1.515625 a 0.5,0.5 0 0 0 -0.300781,0.1367188 0.5,0.5 0 0 0 -0.01758,0.7070312 c 0.369923,0.388732 0.555976,0.6206365 0.644532,0.8457031 0.04997,0.1269918 0.08068,0.2746707 0.08594,0.4824219 C 16.031069,3.3680589 14.277478,3.3962661 13.191408,3.775391 11.356321,4.415981 8.8429998,5.5590489 9.2363301,6.228516 9.725543,7.06118 14.363283,5.3984379 14.363283,5.3984379 c 0,0 -3.114187,4.9257561 -2.152343,5.6562501 0.98051,0.744671 5.486328,-4.3359376 5.486328,-4.3359376 0,0 3.416121,5.7868246 4.228515,5.5410156 0.808653,-0.24468 -0.177734,-5.4140625 -0.177734,-5.4140625 0,0 3.481455,2.9295976 4.099609,2.359375 C 26.526611,8.5787675 24.841805,7.178715 23.609375,6.0527344 22.426613,4.9721316 21.201072,4.3162246 19.050781,3.8671875 19.061289,3.4762898 19.019335,3.1451531 18.898438,2.8378906 18.725496,2.398353 18.42864,2.0731504 18.044922,1.6699219 A 0.5,0.5 0 0 0 17.638672,1.515625 Z M 8.5859375,6.5996094 C 5.700292,8.8669774 4.0107986,12.330152 4,16 c 0,6.627403 5.3725962,12 12,12 6.627403,0 12,-5.372597 12,-12 -1.58e-4,-2.18034 -0.594354,-4.319449 -1.71875,-6.1875 -0.201181,0.1546559 -0.419314,0.201906 -0.617188,0.208984 A 0.5,0.5 0 0 1 25.958984,10.25 0.5,0.5 0 0 1 25.775391,10.933594 l -0.865235,0.5 A 0.5,0.5 0 0 1 24.226562,11.25 0.5,0.5 0 0 1 24.410156,10.566406 l 0.865235,-0.5 a 0.5,0.5 0 0 1 0.173828,-0.05078 c -0.02574,-0.003 -0.05418,-0.0038 -0.07813,-0.0078 C 25.102338,9.9633544 24.869784,9.8701097 24.626953,9.7558594 24.141294,9.5273587 23.62875,9.1967853 23.136719,8.8535156 22.940194,8.7164097 22.946206,8.7019815 22.763672,8.5664062 c 0.05433,0.3691726 0.07558,0.3987628 0.121094,0.8125 0.07489,0.6808468 0.127705,1.3719078 0.103515,1.9628908 -0.01209,0.295491 -0.03809,0.562746 -0.121093,0.833984 -0.083,0.271241 -0.252962,0.660025 -0.72461,0.802735 -0.561654,0.16994 -0.855924,-0.108162 -1.095703,-0.296875 -0.239779,-0.188716 -0.460348,-0.422586 -0.695313,-0.697266 -0.469925,-0.549357 -0.980712,-1.262139 -1.466796,-1.982422 -0.695993,-1.03132 -1.005425,-1.5696182 -1.3125,-2.0781249 -0.405761,0.444293 -0.818065,0.9217421 -1.736328,1.7871094 -0.640601,0.6036955 -1.311602,1.1890875 -1.939454,1.6054685 -0.313922,0.208192 -0.61313,0.378877 -0.945312,0.482422 -0.332182,0.103546 -0.79707,0.154485 -1.19336,-0.146484 -0.3595,-0.273032 -0.469358,-0.695751 -0.480468,-1.025391 -0.01111,-0.32964 0.05028,-0.6393298 0.140625,-0.9648436 0.18071,-0.6510283 0.497553,-1.3591286 0.83789,-2.0429688 0.249071,-0.5004535 0.304152,-0.5449906 0.539063,-0.9589844 -0.294564,0.087205 -0.303104,0.1087306 -0.626953,0.1914063 -0.25654,0.065492 -0.514651,0.122413 -0.771485,0.1757813 l 0.03711,0.0625 A 0.5,0.5 0 0 1 11.25,7.7734375 0.5,0.5 0 0 1 10.566406,7.5898438 L 10.337891,7.1933594 c -0.0121,0.00101 -0.02506,0.00298 -0.03711,0.00391 C 10.008843,7.2197526 9.7343043,7.2237746 9.4511719,7.1679688 9.1680394,7.1121634 8.8096975,6.9835771 8.5898438,6.609375 c -0.00177,-0.003 -0.00218,-0.00674 -0.00391,-0.00977 z M 6.4746094,10 a 0.5,0.5 0 0 1 0.25,0.06641 l 0.8652344,0.5 A 0.5,0.5 0 0 1 7.7734375,11.25 0.5,0.5 0 0 1 7.0898438,11.433594 l -0.8652344,-0.5 A 0.5,0.5 0 0 1 6.0410156,10.25 0.5,0.5 0 0 1 6.4746094,10 Z m 6.1171876,3.251953 a 0.75,0.75 0 0 1 0.318359,0.09766 l 3.464844,2 A 0.75,0.75 0 0 1 16.648438,16.375 0.75,0.75 0 0 1 15.625,16.650391 l -3.464844,-2 A 0.75,0.75 0 0 1 11.886719,13.625 0.75,0.75 0 0 1 12.591797,13.251953 Z M 5,15.5 H 6 A 0.5,0.5 0 0 1 6.5,16 0.5,0.5 0 0 1 6,16.5 H 5 A 0.5,0.5 0 0 1 4.5,16 0.5,0.5 0 0 1 5,15.5 Z m 21,0 h 1 A 0.5,0.5 0 0 1 27.5,16 0.5,0.5 0 0 1 27,16.5 H 26 A 0.5,0.5 0 0 1 25.5,16 0.5,0.5 0 0 1 26,15.5 Z m -18.6601562,5 a 0.5,0.5 0 0 1 0.4335937,0.25 0.5,0.5 0 0 1 -0.1835937,0.683594 l -0.8652344,0.5 A 0.5,0.5 0 0 1 6.0410156,21.75 0.5,0.5 0 0 1 6.2246094,21.066406 l 0.8652344,-0.5 a 0.5,0.5 0 0 1 0.25,-0.06641 z m 17.3457032,0 a 0.5,0.5 0 0 1 0.224609,0.06641 l 0.865235,0.5 a 0.5,0.5 0 0 1 0.183593,0.68359 0.5,0.5 0 0 1 -0.683593,0.183594 l -0.865235,-0.5 A 0.5,0.5 0 0 1 24.226562,20.75 0.5,0.5 0 0 1 24.53125,20.517578 0.5,0.5 0 0 1 24.685547,20.5 Z m -13.660156,3.660156 a 0.5,0.5 0 0 1 0.224609,0.06641 0.5,0.5 0 0 1 0.183594,0.683594 l -0.5,0.865235 A 0.5,0.5 0 0 1 10.25,25.958984 0.5,0.5 0 0 1 10.066406,25.275391 l 0.5,-0.865235 a 0.5,0.5 0 0 1 0.304688,-0.232422 0.5,0.5 0 0 1 0.154297,-0.01758 z m 9.949218,0 a 0.5,0.5 0 0 1 0.154297,0.01758 0.5,0.5 0 0 1 0.304688,0.232422 l 0.5,0.865235 A 0.5,0.5 0 0 1 21.75,25.958984 0.5,0.5 0 0 1 21.066406,25.775391 l -0.5,-0.865235 A 0.5,0.5 0 0 1 20.75,24.226562 0.5,0.5 0 0 1 20.974609,24.160156 Z M 16,25.5 a 0.5,0.5 0 0 1 0.5,0.5 v 1 A 0.5,0.5 0 0 1 16,27.5 0.5,0.5 0 0 1 15.5,27 V 26 A 0.5,0.5 0 0 1 16,25.5 Z" />
  </g>
</svg>
