<?xml version="1.0" standalone="no"?>
<!DOCTYPE svg PUBLIC "-//W3C//DTD SVG 20010904//EN"
 "http://www.w3.org/TR/2001/REC-SVG-20010904/DTD/svg10.dtd">
<svg version="1.0" xmlns="http://www.w3.org/2000/svg"
 width="700.000000pt" height="700.000000pt" viewBox="0 0 700.000000 700.000000"
 preserveAspectRatio="xMidYMid meet">
<metadata>
Created by potrace 1.14, written by Peter Selinger 2001-2017
</metadata>
<g transform="translate(0.000000,700.000000) scale(0.100000,-0.100000)"
fill="#000000" stroke="none">
<path d="M3765 6958 c-79 -28 -145 -121 -145 -202 1 -66 21 -106 106 -212 94
-116 170 -225 148 -212 -5 3 -34 8 -64 12 -30 3 -84 9 -120 13 -128 15 -454 8
-590 -12 -14 -2 -50 -6 -80 -10 -143 -16 -308 -41 -400 -60 -41 -9 -83 -18
-92 -20 -50 -11 -176 -49 -207 -63 -57 -26 -120 -71 -132 -94 -15 -27 -14 -75
1 -93 28 -34 161 -75 296 -90 27 -3 56 -8 64 -10 14 -4 122 -15 205 -20 105
-7 267 -17 333 -19 39 -1 75 -6 79 -9 3 -4 1 -7 -6 -7 -28 0 -231 -150 -312
-230 -110 -109 -154 -191 -147 -275 6 -72 47 -135 98 -148 33 -9 202 -4 280 8
19 2 58 7 85 10 28 3 115 17 195 31 193 33 167 28 410 77 l215 44 120 -95 c66
-52 140 -112 165 -131 334 -269 758 -551 827 -551 24 0 61 34 74 68 15 39 3
142 -26 219 -39 104 -128 264 -221 401 -46 68 -84 125 -84 128 0 2 8 0 18 -6
86 -50 609 -231 736 -256 125 -24 188 -16 209 27 48 101 -75 275 -376 532 -40
34 -74 64 -77 67 -9 11 -152 113 -220 157 -210 135 -468 249 -685 302 l-50 12
-24 77 c-13 42 -37 103 -53 135 -26 52 -191 305 -207 317 -3 3 -26 30 -51 60
-63 76 -89 100 -135 121 -44 20 -113 23 -160 7z"/>
<path d="M2130 5733 c-236 -141 -502 -377 -686 -608 -252 -319 -452 -750 -518
-1120 -3 -16 -8 -41 -11 -55 -2 -13 -7 -42 -10 -65 -3 -22 -8 -51 -10 -65 -24
-138 -23 -521 1 -660 2 -14 7 -41 10 -60 109 -692 464 -1277 1039 -1715 39
-30 91 -64 209 -139 63 -40 324 -169 366 -181 14 -4 39 -13 55 -21 149 -67
481 -141 715 -160 205 -17 487 -4 670 31 33 6 68 13 105 21 86 17 291 80 394
120 655 257 1178 768 1461 1427 40 95 105 282 125 367 51 208 78 428 78 645 0
121 -5 215 -17 315 -10 86 -19 139 -26 170 -5 19 -12 51 -15 70 -27 166 -129
450 -233 650 -85 165 -114 210 -137 211 -74 4 -149 18 -244 46 -145 43 -136
46 -101 -28 16 -35 31 -75 33 -89 3 -14 8 -44 12 -67 4 -24 9 -43 12 -43 2 0
35 18 73 40 74 43 113 49 159 25 51 -26 69 -106 35 -152 -25 -33 -218 -145
-265 -153 -21 -4 -44 -3 -54 2 -12 8 -27 -1 -66 -37 -137 -128 -257 -113 -539
68 -52 34 -120 80 -152 102 -31 22 -66 47 -78 55 -76 52 -517 389 -564 432
-25 22 -26 22 -139 -2 -50 -10 -103 -21 -117 -24 -14 -2 -86 -16 -160 -30
-133 -24 -150 -27 -240 -41 -25 -4 -52 -9 -60 -10 -8 -1 -42 -6 -75 -10 -32
-4 -68 -9 -80 -12 -11 -2 -95 -6 -186 -9 l-166 -5 -54 36 c-95 64 -155 151
-180 263 l-12 49 -34 -18 c-18 -9 -39 -16 -46 -15 -59 12 -71 22 -113 87 -24
38 -44 71 -44 74 0 3 -13 27 -30 53 -61 100 -21 192 83 192 49 0 75 -25 137
-135 55 -96 55 -96 63 -65 10 40 43 92 90 145 19 22 35 41 34 42 -2 2 -42 7
-144 18 -48 6 -85 11 -133 19 -22 4 -121 29 -160 41 -8 3 -35 -7 -60 -22z
m-618 -959 c34 -20 79 -46 99 -57 59 -32 89 -60 98 -92 18 -66 -35 -139 -102
-139 -36 0 -225 101 -269 145 -48 48 -35 131 27 167 36 21 81 13 147 -24z
m1311 -635 c18 -7 75 -38 127 -69 52 -31 102 -59 110 -63 8 -4 29 -15 45 -26
17 -10 144 -84 283 -164 299 -173 319 -191 327 -299 9 -129 -77 -225 -208
-233 -60 -4 -78 4 -237 95 -69 40 -199 115 -290 168 -91 52 -178 103 -195 113
-16 10 -62 36 -102 58 -40 23 -86 56 -103 73 -30 33 -61 115 -56 153 9 71 22
101 61 140 66 67 157 87 238 54z m-1463 -544 c40 -20 60 -53 60 -95 0 -42 -20
-75 -60 -95 -44 -23 -281 -21 -320 2 -73 43 -71 150 4 187 44 22 275 22 316 1z
m4600 -2 c35 -20 53 -53 53 -93 0 -40 -18 -73 -53 -93 -23 -14 -55 -17 -168
-17 l-141 0 -35 34 c-30 27 -36 40 -36 73 0 44 28 89 64 103 11 5 81 9 154 9
108 1 139 -2 162 -16z m-4293 -1099 c43 -28 59 -96 33 -144 -16 -30 -243 -160
-280 -160 -96 0 -146 106 -84 179 14 17 30 31 35 31 5 0 38 18 74 40 36 22 69
40 74 40 5 0 14 6 21 14 21 27 86 27 127 0z m3868 -42 c120 -67 155 -101 155
-148 0 -69 -43 -114 -110 -114 -39 0 -252 122 -276 157 -35 55 -11 132 49 158
43 18 65 12 182 -53z m-3053 -769 c10 -9 22 -32 28 -52 11 -41 1 -67 -82 -208
-55 -93 -78 -113 -126 -113 -64 0 -103 33 -109 94 -5 39 1 54 62 159 37 64 77
123 89 131 44 28 100 24 138 -11z m2182 8 c29 -24 146 -242 146 -272 0 -63
-35 -100 -100 -107 -44 -4 -52 -1 -77 24 -45 46 -146 233 -146 270 0 68 63
119 130 104 18 -5 40 -13 47 -19z m-1085 -305 c25 -26 26 -31 29 -166 4 -153
-6 -195 -53 -220 -30 -16 -81 -15 -111 1 -47 25 -56 62 -52 217 l3 144 34 30
c30 27 39 30 79 25 30 -3 53 -13 71 -31z"/>
</g>
</svg>
